<svg class="animated" id="freepik_stories-house-searching" xmlns="http://www.w3.org/2000/svg" viewBox="0 0 500 500" version="1.1" xmlns:xlink="http://www.w3.org/1999/xlink" xmlns:svgjs="http://svgjs.com/svgjs"><style>svg#freepik_stories-house-searching:not(.animated) .animable {opacity: 0;}svg#freepik_stories-house-searching.animated #freepik--Houses--inject-78 {animation: 1.5s Infinite  linear floating;animation-delay: 0s;}            @keyframes floating {                0% {                    opacity: 1;                    transform: translateY(0px);                }                50% {                    transform: translateY(-10px);                }                100% {                    opacity: 1;                    transform: translateY(0px);                }            }        .animator-hidden { display: none; }</style><g id="freepik--background-complete--inject-78" class="animable animator-hidden" style="transform-origin: 250px 225.125px;"><rect y="382.4" width="500" height="0.25" style="fill: rgb(230, 230, 230); transform-origin: 250px 382.525px;" id="elrsfgjkrc2sj" class="animable"></rect><rect x="51.65" y="393.56" width="26.57" height="0.25" style="fill: rgb(230, 230, 230); transform-origin: 64.935px 393.685px;" id="elx7fhpl6zy4q" class="animable"></rect><rect x="64.93" y="388.56" width="22.9" height="0.25" style="fill: rgb(230, 230, 230); transform-origin: 76.38px 388.685px;" id="elkambww5nvnk" class="animable"></rect><rect x="263.96" y="389.3" width="61.45" height="0.25" style="fill: rgb(230, 230, 230); transform-origin: 294.685px 389.425px;" id="elepq34o87ebm" class="animable"></rect><rect x="331.17" y="389.3" width="14.74" height="0.25" style="fill: rgb(230, 230, 230); transform-origin: 338.54px 389.425px;" id="eluy5z1bovrbq" class="animable"></rect><rect x="381.06" y="391.01" width="48.66" height="0.25" style="fill: rgb(230, 230, 230); transform-origin: 405.39px 391.135px;" id="el6rcht70jncx" class="animable"></rect><rect x="106.54" y="395" width="86.63" height="0.25" style="fill: rgb(230, 230, 230); transform-origin: 149.855px 395.125px;" id="elht7c6hv8tfk" class="animable"></rect><rect x="438.5" y="391.01" width="7.09" height="0.25" style="fill: rgb(230, 230, 230); transform-origin: 442.045px 391.135px;" id="elydiw2k08v4" class="animable"></rect><path d="M237,337.8H43.91a5.71,5.71,0,0,1-5.7-5.71V60.66A5.71,5.71,0,0,1,43.91,55H237a5.71,5.71,0,0,1,5.71,5.71V332.09A5.71,5.71,0,0,1,237,337.8ZM43.91,55.2a5.46,5.46,0,0,0-5.45,5.46V332.09a5.46,5.46,0,0,0,5.45,5.46H237a5.47,5.47,0,0,0,5.46-5.46V60.66A5.47,5.47,0,0,0,237,55.2Z" style="fill: rgb(230, 230, 230); transform-origin: 140.46px 196.4px;" id="elb0yjlmk8ywa" class="animable"></path><path d="M453.31,337.8H260.21a5.72,5.72,0,0,1-5.71-5.71V60.66A5.72,5.72,0,0,1,260.21,55h193.1A5.71,5.71,0,0,1,459,60.66V332.09A5.71,5.71,0,0,1,453.31,337.8ZM260.21,55.2a5.47,5.47,0,0,0-5.46,5.46V332.09a5.47,5.47,0,0,0,5.46,5.46h193.1a5.47,5.47,0,0,0,5.46-5.46V60.66a5.47,5.47,0,0,0-5.46-5.46Z" style="fill: rgb(230, 230, 230); transform-origin: 356.75px 196.4px;" id="eltto1hvr7gu" class="animable"></path><g id="elo9v0shm15i9"><circle cx="131.56" cy="205.38" r="22.44" style="fill: rgb(240, 240, 240); transform-origin: 131.56px 205.38px; transform: rotate(-77.02deg);" class="animable"></circle></g><path d="M284.58,200.74c-2.79-6-.57-10.35,6.27-10.35,4.28,0,9.6,1.7,14.78,4.45.59-1.57,2.23-2.51,4.88-2.51,4.67,0,11.1,2.91,16.14,7a9.3,9.3,0,0,1,5.26-1.57c4.47-.18,9.87,1.49,14.57,4.21a2.85,2.85,0,0,1,2.07-.78,10.68,10.68,0,0,1,7.79,3.77c.11.13.2.27.3.4H281.11C278.72,203.23,281.36,200.85,284.58,200.74Z" style="fill: rgb(245, 245, 245); transform-origin: 318.413px 197.875px;" id="elxano0zl9b9" class="animable"></path><polygon points="137.44 247.17 199.32 233 199.32 382.4 137.44 382.4 137.44 247.17" style="fill: rgb(250, 250, 250); transform-origin: 168.38px 307.7px;" id="el8ako4oon56g" class="animable"></polygon><rect x="199.32" y="233" width="32.11" height="149.4" style="fill: rgb(235, 235, 235); transform-origin: 215.375px 307.7px;" id="el914x6fosxy5" class="animable"></rect><g id="elnjmpz9pq4hf"><rect x="220.94" y="197.27" width="52.67" height="185.13" style="fill: rgb(250, 250, 250); transform-origin: 247.275px 289.835px; transform: rotate(180deg);" class="animable"></rect></g><rect x="273.61" y="197.27" width="27.33" height="185.13" style="fill: rgb(235, 235, 235); transform-origin: 287.275px 289.835px;" id="eldir3ltlxuji" class="animable"></rect><g id="elwpn7fmf1gd8"><rect x="228.03" y="183.51" width="45.58" height="13.76" style="fill: rgb(250, 250, 250); transform-origin: 250.82px 190.39px; transform: rotate(180deg);" class="animable"></rect></g><g id="el15j2lszmpa1i"><rect x="228.03" y="194.18" width="45.58" height="3.09" style="fill: rgb(235, 235, 235); transform-origin: 250.82px 195.725px; transform: rotate(180deg);" class="animable"></rect></g><rect x="273.61" y="183.51" width="20.25" height="13.76" style="fill: rgb(235, 235, 235); transform-origin: 283.735px 190.39px;" id="elrpw2h3b8p5f" class="animable"></rect><g id="ell6g25scsw8l"><rect x="235.12" y="169.76" width="38.49" height="13.76" style="fill: rgb(250, 250, 250); transform-origin: 254.365px 176.64px; transform: rotate(180deg);" class="animable"></rect></g><g id="ela75ihz3ac58"><rect x="235.12" y="180.43" width="38.49" height="3.09" style="fill: rgb(235, 235, 235); transform-origin: 254.365px 181.975px; transform: rotate(180deg);" class="animable"></rect></g><rect x="273.61" y="169.76" width="13.16" height="13.76" style="fill: rgb(235, 235, 235); transform-origin: 280.19px 176.64px;" id="el6yxk6jrwur9" class="animable"></rect><rect x="259.66" y="150.54" width="2.56" height="19.22" style="fill: rgb(235, 235, 235); transform-origin: 260.94px 160.15px;" id="elhdjbrlzcatf" class="animable"></rect><g id="elbashfssu0s"><rect x="292.22" y="221.33" width="38.46" height="161.07" style="fill: rgb(250, 250, 250); transform-origin: 311.45px 301.865px; transform: rotate(180deg);" class="animable"></rect></g><rect x="330.68" y="221.33" width="19.96" height="161.07" style="fill: rgb(235, 235, 235); transform-origin: 340.66px 301.865px;" id="elcmzrrl5oh4" class="animable"></rect><polygon points="340.66 254 369.82 279 369.82 382.4 340.66 382.4 340.66 254" style="fill: rgb(250, 250, 250); transform-origin: 355.24px 318.2px;" id="elqc7q670lt8" class="animable"></polygon><rect x="369.82" y="279" width="15.14" height="103.4" style="fill: rgb(235, 235, 235); transform-origin: 377.39px 330.7px;" id="el4755j2nktby" class="animable"></rect><polygon points="384.96 279 369.82 279 340.66 254 355.79 254 384.96 279" style="fill: rgb(235, 235, 235); transform-origin: 362.81px 266.5px;" id="elcl7k9p1lfrd" class="animable"></polygon><path d="M439.9,382.4a14.68,14.68,0,0,1,8.71-10.93,18.39,18.39,0,0,0-2.56,10.93Z" style="fill: rgb(235, 235, 235); transform-origin: 444.255px 376.935px;" id="elypajgsb2a9l" class="animable"></path><path d="M186.3,382.4a14.68,14.68,0,0,0-8.71-10.93,18.39,18.39,0,0,1,2.56,10.93Z" style="fill: rgb(235, 235, 235); transform-origin: 181.945px 376.935px;" id="el2rjhkyk16kj" class="animable"></path><path d="M58.87,382.4s-.49-12.8-5.84-16.52c2.19,5.23,1.72,16.52,1.72,16.52Z" style="fill: rgb(235, 235, 235); transform-origin: 55.95px 374.14px;" id="el9d5yhe13mru" class="animable"></path><path d="M56.86,382.4s.5-7.35,5.85-9.48c-2.2,3-1.72,9.48-1.72,9.48Z" style="fill: rgb(235, 235, 235); transform-origin: 59.785px 377.66px;" id="el34xsjhuenly" class="animable"></path><path d="M190.88,382.4s-.54-12.12-10.24-16.52c4.34,6.22,4.09,16.52,4.09,16.52Z" style="fill: rgb(235, 235, 235); transform-origin: 185.76px 374.14px;" id="elhaklo19ol1b" class="animable"></path><polygon points="93.68 300.81 100.74 350.61 101.44 355.59 105.97 355.59 105.26 350.61 98.2 300.81 93.68 300.81" style="fill: rgb(224, 224, 224); transform-origin: 99.825px 328.2px;" id="el1i9ee7izggq" class="animable"></polygon><polygon points="287.67 300.81 294.73 350.61 295.43 355.59 299.96 355.59 299.25 350.61 292.19 300.81 287.67 300.81" style="fill: rgb(224, 224, 224); transform-origin: 293.815px 328.2px;" id="el0ugm0ob1vrq" class="animable"></polygon><polygon points="122.67 350.61 123.38 355.59 127.19 382.44 131.72 382.44 127.91 355.59 127.21 350.61 122.67 350.61" style="fill: rgb(230, 230, 230); transform-origin: 127.195px 366.525px;" id="elrs22rptz38h" class="animable"></polygon><polygon points="316.67 350.61 317.38 355.59 321.18 382.44 325.7 382.44 321.9 355.59 321.2 350.61 316.67 350.61" style="fill: rgb(230, 230, 230); transform-origin: 321.185px 366.525px;" id="elck3nrqwrnpj" class="animable"></polygon><polygon points="293.81 350.61 293.1 355.59 289.29 382.44 284.76 382.44 288.57 355.59 289.27 350.61 293.81 350.61" style="fill: rgb(230, 230, 230); transform-origin: 289.285px 366.525px;" id="elsup7ymxsaoc" class="animable"></polygon><polygon points="99.81 350.61 99.1 355.59 95.3 382.44 90.78 382.44 94.58 355.59 95.29 350.61 99.81 350.61" style="fill: rgb(230, 230, 230); transform-origin: 95.295px 366.525px;" id="eliyy6wgedetj" class="animable"></polygon><polygon points="87.17 307.74 294.5 307.74 290.65 293.87 83.32 293.87 87.17 307.74" style="fill: rgb(245, 245, 245); transform-origin: 188.91px 300.805px;" id="el8ny6oeq8wq4" class="animable"></polygon><polygon points="91.9 307.74 299.24 307.74 295.39 293.87 88.05 293.87 91.9 307.74" style="fill: rgb(230, 230, 230); transform-origin: 193.645px 300.805px;" id="ele8rkapu5ui8" class="animable"></polygon><polygon points="90.06 325.03 297.39 325.03 293.54 311.17 86.2 311.17 90.06 325.03" style="fill: rgb(245, 245, 245); transform-origin: 191.795px 318.1px;" id="eljh2kxvk716t" class="animable"></polygon><polygon points="94.79 325.03 302.12 325.03 298.27 311.17 90.94 311.17 94.79 325.03" style="fill: rgb(230, 230, 230); transform-origin: 196.53px 318.1px;" id="elutafirc4kn" class="animable"></polygon><polygon points="92.94 342.35 300.28 342.35 296.43 328.49 89.09 328.49 92.94 342.35" style="fill: rgb(245, 245, 245); transform-origin: 194.685px 335.42px;" id="el7764ww2o6y5" class="animable"></polygon><polygon points="97.68 342.35 305.01 342.35 301.16 328.49 93.83 328.49 97.68 342.35" style="fill: rgb(230, 230, 230); transform-origin: 199.42px 335.42px;" id="el4mlioe23kw4" class="animable"></polygon><rect x="117.46" y="350.61" width="206.42" height="4.98" style="fill: rgb(230, 230, 230); transform-origin: 220.67px 353.1px;" id="eluezqjh3a9xd" class="animable"></rect><rect x="89.09" y="350.61" width="28.37" height="4.98" style="fill: rgb(245, 245, 245); transform-origin: 103.275px 353.1px;" id="elbgt0qqeoa7s" class="animable"></rect><path d="M73.5,147.47c-3.87-8.36-.79-14.31,8.67-14.31,5.93,0,13.28,2.34,20.45,6.15.81-2.17,3.09-3.47,6.75-3.47,6.46,0,15.35,4,22.33,9.71a12.8,12.8,0,0,1,7.27-2.17c6.18-.26,13.66,2.06,20.16,5.82a4,4,0,0,1,2.86-1.08c3.56-.15,8.38,2.19,10.77,5.21.15.19.28.37.41.56H68.7C65.4,150.92,69.05,147.62,73.5,147.47Z" style="fill: rgb(245, 245, 245); transform-origin: 120.298px 143.525px;" id="elgd5szphm3" class="animable"></path><path d="M347.91,164.71a6.85,6.85,0,0,1,.79,0c-.24-2.73,1.17-4.48,4.2-4.48a16.46,16.46,0,0,1,7.59,2.45c-.78-5.3,1.73-8.75,7.39-8.75,4.57,0,10.36,2.24,16.08,5.9.5-2.08,2.18-3.33,5-3.33,5,0,12,3.86,17.7,9.3h0a8,8,0,0,1,5.48-2.08c4.73-.25,10.61,2,15.82,5.58a2.55,2.55,0,0,1,2.15-1c2.59-.13,6.15,1.86,8.23,4.52H343.75C341.52,168.7,343.29,165.17,347.91,164.71Z" style="fill: rgb(245, 245, 245); transform-origin: 390.566px 163.375px;" id="el12mui0721kv" class="animable"></path><path d="M188.78,104.23a6.68,6.68,0,0,1,.78,0c-.24-2.74,1.18-4.48,4.2-4.48a16.46,16.46,0,0,1,7.6,2.45c-.78-5.31,1.72-8.76,7.38-8.76,4.58,0,10.36,2.25,16.08,5.91.5-2.08,2.18-3.33,5-3.33,5,0,12,3.85,17.7,9.3h0a8.09,8.09,0,0,1,5.48-2.09c4.73-.24,10.61,2,15.82,5.58a2.56,2.56,0,0,1,2.15-1c2.59-.14,6.16,1.85,8.23,4.52H184.61C182.39,108.22,184.16,104.69,188.78,104.23Z" style="fill: rgb(245, 245, 245); transform-origin: 231.429px 102.885px;" id="elo6iotxlw1c" class="animable"></path><polygon points="424.77 365.1 407 347.33 393.16 347.33 408.52 362.69 404.3 362.69 404.3 382.4 420.55 382.4 420.55 365.1 424.77 365.1" style="fill: rgb(235, 235, 235); transform-origin: 408.965px 364.865px;" id="el0ar01sjhgp6" class="animable"></polygon><polygon points="410.93 365.1 393.16 347.33 375.39 365.1 382.02 365.1 382.02 382.4 404.3 382.4 404.3 365.1 410.93 365.1" style="fill: rgb(250, 250, 250); transform-origin: 393.16px 364.865px;" id="elir1p653x69d" class="animable"></polygon></g><g id="freepik--Shadow--inject-78" class="animable" style="transform-origin: 250px 416.24px;"><ellipse cx="250" cy="416.24" rx="193.89" ry="11.32" style="fill: rgb(245, 245, 245); transform-origin: 250px 416.24px;" id="el5m4dz0ri4c9" class="animable"></ellipse></g><g id="freepik--Houses--inject-78" class="animable animator-active" style="transform-origin: 321.32px 174.41px;"><polygon points="401.16 107.72 374.51 81.07 353.75 81.07 376.79 104.11 370.45 104.11 370.45 133.66 394.82 133.66 394.82 107.72 401.16 107.72" style="fill: rgb(89, 0, 245); transform-origin: 377.455px 107.365px;" id="elumh4m75yiee" class="animable"></polygon><g id="eljaslw6syym"><polygon points="401.16 107.72 374.51 81.07 353.75 81.07 376.79 104.11 370.45 104.11 370.45 133.66 394.82 133.66 394.82 107.72 401.16 107.72" style="fill: rgb(255, 255, 255); opacity: 0.4; transform-origin: 377.455px 107.365px;" class="animable"></polygon></g><polygon points="380.4 107.72 353.75 81.07 327.1 107.72 337.05 107.72 337.05 133.66 370.45 133.66 370.45 107.72 380.4 107.72" style="fill: rgb(89, 0, 245); transform-origin: 353.75px 107.365px;" id="el360di9iqfac" class="animable"></polygon><g id="el16lyehve0q"><polygon points="380.4 107.72 353.75 81.07 327.1 107.72 337.05 107.72 337.05 133.66 370.45 133.66 370.45 107.72 380.4 107.72" style="fill: rgb(255, 255, 255); opacity: 0.7; transform-origin: 353.75px 107.365px;" class="animable"></polygon></g><polygon points="418.32 214.1 391.67 187.44 370.91 187.44 393.95 210.48 387.61 210.48 387.61 240.03 411.98 240.03 411.98 214.1 418.32 214.1" style="fill: rgb(89, 0, 245); transform-origin: 394.615px 213.735px;" id="elmdcnb151cwl" class="animable"></polygon><g id="eloj7inm64bi"><polygon points="418.32 214.1 391.67 187.44 370.91 187.44 393.95 210.48 387.61 210.48 387.61 240.03 411.98 240.03 411.98 214.1 418.32 214.1" style="fill: rgb(255, 255, 255); opacity: 0.4; transform-origin: 394.615px 213.735px;" class="animable"></polygon></g><polygon points="397.56 214.1 370.91 187.44 344.26 214.1 354.2 214.1 354.2 240.03 387.61 240.03 387.61 214.1 397.56 214.1" style="fill: rgb(89, 0, 245); transform-origin: 370.91px 213.735px;" id="elwy752k32skl" class="animable"></polygon><g id="elrac0er55c9d"><polygon points="397.56 214.1 370.91 187.44 344.26 214.1 354.2 214.1 354.2 240.03 387.61 240.03 387.61 214.1 397.56 214.1" style="fill: rgb(255, 255, 255); opacity: 0.7; transform-origin: 370.91px 213.735px;" class="animable"></polygon></g><polygon points="298.38 241.81 271.72 215.16 250.97 215.16 274.01 238.19 267.67 238.19 267.67 267.75 292.04 267.75 292.04 241.81 298.38 241.81" style="fill: rgb(89, 0, 245); transform-origin: 274.675px 241.455px;" id="ely9iv1r9fwof" class="animable"></polygon><g id="elbj4f9ss7jp6"><polygon points="298.38 241.81 271.72 215.16 250.97 215.16 274.01 238.19 267.67 238.19 267.67 267.75 292.04 267.75 292.04 241.81 298.38 241.81" style="fill: rgb(255, 255, 255); opacity: 0.4; transform-origin: 274.675px 241.455px;" class="animable"></polygon></g><polygon points="277.62 241.81 250.97 215.16 224.32 241.81 234.26 241.81 234.26 267.74 267.67 267.74 267.67 241.81 277.62 241.81" style="fill: rgb(89, 0, 245); transform-origin: 250.97px 241.45px;" id="el44jxhsmmw96" class="animable"></polygon><g id="elm0vtxzhjdv"><polygon points="277.62 241.81 250.97 215.16 224.32 241.81 234.26 241.81 234.26 267.74 267.67 267.74 267.67 241.81 277.62 241.81" style="fill: rgb(255, 255, 255); opacity: 0.7; transform-origin: 250.97px 241.45px;" class="animable"></polygon></g><polygon points="296.79 152.26 282.45 152.26 280.4 150.22 263.75 119.22 296.79 152.26" style="fill: rgb(47, 84, 198); transform-origin: 280.27px 135.74px;" id="elmvf7uj0xn8" class="animable"></polygon><g id="el6xyml6ifba8"><rect x="282.41" y="145.74" width="30.21" height="36.64" style="fill: rgb(89, 0, 245); transform-origin: 297.515px 164.06px; transform: rotate(180deg);" class="animable"></rect></g><g id="el6ajtwky6b2t"><rect x="282.41" y="145.74" width="30.21" height="36.64" style="opacity: 0.3; transform-origin: 297.515px 164.06px; transform: rotate(180deg);" class="animable"></rect></g><polygon points="294.74 150.22 320.48 150.22 287.43 117.17 261.7 117.17 294.74 150.22" style="fill: rgb(89, 0, 245); transform-origin: 291.09px 133.695px;" id="elj3pvs1lysy7" class="animable"></polygon><g id="elj3kxaigdoe"><polygon points="294.74 150.22 320.48 150.22 287.43 117.17 261.7 117.17 294.74 150.22" style="opacity: 0.3; transform-origin: 291.09px 133.695px;" class="animable"></polygon></g><polygon points="282.4 140.95 282.4 182.37 240.99 182.37 240.99 140.95 261.7 120.84 261.91 121.05 263.75 122.83 282.4 140.95" style="fill: rgb(89, 0, 245); transform-origin: 261.695px 151.605px;" id="ellt1j8ndrvci" class="animable"></polygon><g id="el2bvaeiyuhp"><polygon points="263.75 119.22 263.75 133.56 245.04 152.26 240.99 152.26 240.99 141.98 261.91 121.05 263.75 119.22" style="opacity: 0.3; transform-origin: 252.37px 135.74px;" class="animable"></polygon></g><polygon points="294.74 150.22 280.4 150.22 261.7 131.51 261.7 117.17 294.74 150.22" style="fill: rgb(89, 0, 245); transform-origin: 278.22px 133.695px;" id="ele2pu9r6ryib" class="animable"></polygon><polygon points="228.65 150.22 242.99 150.22 261.7 131.51 261.7 117.17 228.65 150.22" style="fill: rgb(89, 0, 245); transform-origin: 245.175px 133.695px;" id="elhg5y0hibidm" class="animable"></polygon></g><g id="freepik--Character--inject-78" class="animable" style="transform-origin: 227.228px 248.628px;"><path d="M224,192.38c-8.53,6.92-17.33,13.43-26.18,19.83S180,224.83,171,231s-18.15,12.11-27.34,18c-4.57,3-9.21,5.84-13.82,8.76a25.59,25.59,0,0,1-7.44,3.52A22.06,22.06,0,0,1,118,262a18.41,18.41,0,0,1-5-.27,10,10,0,0,1-7.8-11.82c0-.15.07-.34.11-.5a18,18,0,0,1,2-4.6,21.52,21.52,0,0,1,2.59-3.57,25.63,25.63,0,0,1,6.43-5.14c4.65-2.86,9.26-5.77,13.93-8.57,9.31-5.69,18.71-11.22,28.16-16.68s19-10.75,28.63-15.91,19.34-10.19,29.3-14.83A7.31,7.31,0,0,1,224,192.38Z" style="fill: rgb(89, 0, 245); transform-origin: 165.781px 220.785px;" id="elckvr1hw990n" class="animable"></path><path d="M224,192.38c-8.53,6.92-17.33,13.43-26.18,19.83S180,224.83,171,231s-18.15,12.11-27.34,18c-4.57,3-9.21,5.84-13.82,8.76a25.59,25.59,0,0,1-7.44,3.52A22.06,22.06,0,0,1,118,262a18.41,18.41,0,0,1-5-.27,10,10,0,0,1-7.8-11.82c0-.15.07-.34.11-.5a18,18,0,0,1,2-4.6,21.52,21.52,0,0,1,2.59-3.57,25.63,25.63,0,0,1,6.43-5.14c4.65-2.86,9.26-5.77,13.93-8.57,9.31-5.69,18.71-11.22,28.16-16.68s19-10.75,28.63-15.91,19.34-10.19,29.3-14.83A7.31,7.31,0,0,1,224,192.38Z" style="fill: rgb(89, 0, 245); transform-origin: 165.781px 220.785px;" id="elbb74wkg0m7t" class="animable"></path><g id="el0esn1b7g06a"><path d="M224,192.38c-8.53,6.92-17.33,13.43-26.18,19.83S180,224.83,171,231s-18.15,12.11-27.34,18c-4.57,3-9.21,5.84-13.82,8.76a25.59,25.59,0,0,1-7.44,3.52A22.06,22.06,0,0,1,118,262a18.41,18.41,0,0,1-5-.27,10,10,0,0,1-7.8-11.82c0-.15.07-.34.11-.5a18,18,0,0,1,2-4.6,21.52,21.52,0,0,1,2.59-3.57,25.63,25.63,0,0,1,6.43-5.14c4.65-2.86,9.26-5.77,13.93-8.57,9.31-5.69,18.71-11.22,28.16-16.68s19-10.75,28.63-15.91,19.34-10.19,29.3-14.83A7.31,7.31,0,0,1,224,192.38Z" style="fill: rgb(255, 255, 255); opacity: 0.5; transform-origin: 165.781px 220.785px;" class="animable"></path></g><polygon points="187.1 407.63 195.26 405.74 191.44 386.71 183.28 388.6 187.1 407.63" style="fill: rgb(235, 179, 118); transform-origin: 189.27px 397.17px;" id="elwzgb9zzletl" class="animable"></polygon><path d="M132.08,180.23c-1.13,4-2.22,8.21-3.26,12.33s-2,8.3-2.8,12.46c-.44,2.07-.82,4.19-1.15,6.14s-.52,4-.64,6.05a59.49,59.49,0,0,0,0,6.12c0,1,.13,2,.23,3.06s.28,2.07.42,2.94l-4,1.51a26.33,26.33,0,0,1-1.35-3.32,33.22,33.22,0,0,1-1-3.33,45.37,45.37,0,0,1-1.12-6.84,53.85,53.85,0,0,1-.1-7c.16-2.36.44-4.53.75-6.73.63-4.39,1.44-8.74,2.4-13s2-8.55,3.35-12.86Z" style="fill: rgb(235, 179, 118); transform-origin: 124.66px 204.3px;" id="elvxiow6ds3k" class="animable"></path><path d="M120.31,181.61l8.41,6.7,5.05,4s.53-1.41,1.17-3.43c1.22-3.9,2.81-10.08,1.71-12.92-1.73-4.5-5-8.56-9.14-7.66C124,169.09,120.31,181.61,120.31,181.61Z" style="fill: rgb(38, 50, 56); transform-origin: 128.665px 180.242px;" id="el902cr40myhg" class="animable"></path><polygon points="131.93 407.69 140.3 407.69 139.65 388.29 131.27 388.29 131.93 407.69" style="fill: rgb(235, 179, 118); transform-origin: 135.785px 397.99px;" id="elhq2juxc7q26" class="animable"></polygon><polygon points="191.44 386.72 193.49 396.91 185.25 398.41 183.27 388.61 191.44 386.72" style="fill: rgb(218, 157, 98); transform-origin: 188.38px 392.565px;" id="elyerp3p5q2s" class="animable"></polygon><polygon points="131.27 388.29 139.65 388.29 139.98 398.29 131.6 398.29 131.27 388.29" style="fill: rgb(218, 157, 98); transform-origin: 135.625px 393.29px;" id="el3yarx55mwjk" class="animable"></polygon><path d="M158.57,219.12s-4.86,57.49-9.9,89.89c-4.07,26.17-7.29,87.35-7.29,87.35H130s-5.44-59.08-3.37-85c5.23-65.49-4-77.09,6.95-92.27Z" style="fill: rgb(89, 0, 245); transform-origin: 142.365px 307.725px;" id="elb3xt4svnx4i" class="animable"></path><g id="elmdebfk0spz"><path d="M158.57,219.12s-4.86,57.49-9.9,89.89c-4.07,26.17-7.29,87.35-7.29,87.35H130s-5.44-59.08-3.37-85c5.23-65.49-4-77.09,6.95-92.27Z" style="opacity: 0.6; transform-origin: 142.365px 307.725px;" class="animable"></path></g><path d="M121.43,230.19l-4.94,3.36.7,2.87s10.29-5.34,7.54-7.48Z" style="fill: rgb(235, 179, 118); transform-origin: 120.844px 232.68px;" id="elgm71q9lujc" class="animable"></path><path d="M143.83,408.18a10.18,10.18,0,0,1-2.21-.3.22.22,0,0,1-.15-.16.2.2,0,0,1,.09-.2c.29-.19,2.82-1.83,3.8-1.39a.67.67,0,0,1,.4.56,1.13,1.13,0,0,1-.33,1.05A2.38,2.38,0,0,1,143.83,408.18Zm-1.65-.59c1.46.3,2.56.24,3-.14a.77.77,0,0,0,.21-.71.3.3,0,0,0-.17-.25C144.69,406.26,143.22,407,142.18,407.59Z" style="fill: rgb(89, 0, 245); transform-origin: 143.625px 407.122px;" id="elwvh2x31ebc" class="animable"></path><path d="M141.67,407.88a.16.16,0,0,1-.1,0,.21.21,0,0,1-.1-.17c0-.11,0-2.52.92-3.33a1,1,0,0,1,.84-.26.69.69,0,0,1,.67.55c.19,1-1.34,2.76-2.13,3.21A.18.18,0,0,1,141.67,407.88Zm1.42-3.39a.7.7,0,0,0-.44.17,4.52,4.52,0,0,0-.77,2.64c.79-.64,1.75-2,1.63-2.57,0-.09-.07-.21-.33-.24Z" style="fill: rgb(89, 0, 245); transform-origin: 142.693px 405.998px;" id="el6yv2fh01l2a" class="animable"></path><path d="M196,404.48a.21.21,0,0,1-.16-.33c.27-.32,2.6-3.06,3.79-3.06h.08a.61.61,0,0,1,.51.35,1.08,1.08,0,0,1,0,1c-.52,1.1-2.87,1.72-4.23,2Zm3.62-3c-.65,0-2.09,1.36-3.08,2.47,1.83-.43,3.07-1,3.36-1.65a.67.67,0,0,0,0-.67.25.25,0,0,0-.2-.15Z" style="fill: rgb(89, 0, 245); transform-origin: 198.072px 402.785px;" id="elusocdvscx7n" class="animable"></path><path d="M196,404.48h0a.17.17,0,0,1-.14-.13c0-.09-.72-2.25-.08-3.46a1.44,1.44,0,0,1,.88-.74c.53-.16.79,0,.9.23.51.82-.62,3.24-1.37,4A.21.21,0,0,1,196,404.48Zm1-4a.74.74,0,0,0-.23,0,1.05,1.05,0,0,0-.65.54,4.61,4.61,0,0,0,0,2.8c.71-1,1.4-2.79,1.1-3.28A.23.23,0,0,0,196.94,400.48Z" style="fill: rgb(89, 0, 245); transform-origin: 196.601px 402.283px;" id="elzj1rfv9dlep" class="animable"></path><path d="M142.4,148.07c1,5,3,15-.45,18.35,0,0,1.36,5,10.6,5,10.15,0,4.85-5,4.85-5-5.54-1.32-5.4-5.43-4.43-9.3Z" style="fill: rgb(235, 179, 118); transform-origin: 150.367px 159.745px;" id="elhevy7n7yy5l" class="animable"></path><path d="M162.58,137.41a.39.39,0,0,1-.23-.07.4.4,0,0,1-.09-.56,4,4,0,0,1,3.19-1.7.4.4,0,0,1,0,.79,3.15,3.15,0,0,0-2.52,1.38A.39.39,0,0,1,162.58,137.41Z" style="fill: rgb(38, 50, 56); transform-origin: 163.985px 136.246px;" id="elxncy5rpjssr" class="animable"></path><path d="M164.8,142.18a17.91,17.91,0,0,0,2.24,4.41,2.93,2.93,0,0,1-2.43.35Z" style="fill: rgb(222, 87, 83); transform-origin: 165.825px 144.621px;" id="el6f2ubhw56ne" class="animable"></path><path d="M164.24,141c0,.68.31,1.24.75,1.25s.82-.51.85-1.19-.31-1.23-.75-1.25S164.27,140.33,164.24,141Z" style="fill: rgb(38, 50, 56); transform-origin: 165.041px 141.03px;" id="elpcc4q75hjv" class="animable"></path><path d="M164.89,139.84l1.64-.4S165.65,140.67,164.89,139.84Z" style="fill: rgb(38, 50, 56); transform-origin: 165.71px 139.784px;" id="elwybufw05ypk" class="animable"></path><path d="M141,406.72h-9.41a.65.65,0,0,0-.67.57l-1.07,7.44a1.33,1.33,0,0,0,1.34,1.49c3.28-.05,4.86-.25,9-.25,2.55,0,6.26.27,9.78.27s3.7-3.48,2.24-3.79c-6.56-1.42-7.6-3.36-9.81-5.22A2.21,2.21,0,0,0,141,406.72Z" style="fill: rgb(38, 50, 56); transform-origin: 141.456px 411.48px;" id="elyfwzjy5mq78" class="animable"></path><path d="M195.1,403.59l-8.69,3.61a.66.66,0,0,0-.4.78l1.86,7.29a1.34,1.34,0,0,0,1.81.86c3-1.31,4.4-2.09,8.22-3.68,2.35-1,7.32-2.75,10.57-4.1s2.08-4.63.61-4.36c-6.6,1.22-9.74.41-12.49-.46A2.18,2.18,0,0,0,195.1,403.59Z" style="fill: rgb(38, 50, 56); transform-origin: 198.27px 409.832px;" id="elvo0wt1wh1qi" class="animable"></path><path d="M176.18,176.79c1.63,3.84,3.39,7.77,5.17,11.59q1.35,2.88,2.81,5.66c1,1.86,2,3.68,3,5.42.53.86,1.06,1.72,1.61,2.51l.82,1.14a4.5,4.5,0,0,0,.57.66,6.89,6.89,0,0,0,3.89,1.66c3.41.49,7.69-.2,11.52-1.23l1.78,3.85a28.48,28.48,0,0,1-3.14,1.63,28.07,28.07,0,0,1-3.27,1.28,23.46,23.46,0,0,1-7.3,1.25,14.83,14.83,0,0,1-4.1-.54,12.47,12.47,0,0,1-4.11-2,12.71,12.71,0,0,1-1.75-1.61c-.45-.51-.78-.94-1.18-1.42-.75-.94-1.42-1.89-2.09-2.84a103.6,103.6,0,0,1-6.72-11.7c-2-4-3.8-8-5.46-12.14Z" style="fill: rgb(235, 179, 118); transform-origin: 187.79px 194.5px;" id="elbk349fbet8h" class="animable"></path><path d="M204.71,208.52l9.14-1.44-2.43-5.18s-7.08,1.23-8.44,4.43Z" style="fill: rgb(235, 179, 118); transform-origin: 208.415px 205.21px;" id="el3hrkdays4bv" class="animable"></path><polygon points="213.84 203.04 212.84 200.83 211.42 201.9 213.84 207.08 213.84 203.04" style="fill: rgb(235, 179, 118); transform-origin: 212.63px 203.955px;" id="elbk9s3fuknjl" class="animable"></polygon><path d="M141.64,137.79c.18,8.31.08,11.83,4.1,16.25,6,6.65,16.22,4.61,18.52-3.59,2.07-7.38,1.42-19.73-6.56-23.35A11.34,11.34,0,0,0,141.64,137.79Z" style="fill: rgb(235, 179, 118); transform-origin: 153.449px 142.04px;" id="elnv354od8pt" class="animable"></path><path d="M134.94,122.78c8.54-6.19,18.08-2.68,23.3,1.6,5.46,4.48,4.59,13.09,1.25,16.65a4.4,4.4,0,0,1,.56,3.61v0a10.85,10.85,0,0,1-8,12.2l-.47.12c-10.67,2.54-23-4.68-24.86-15.48C125.59,134.89,127.39,128.24,134.94,122.78Z" style="fill: rgb(38, 50, 56); transform-origin: 144.289px 138.452px;" id="elknwio0e4tu" class="animable"></path><path d="M157.58,141.64a6.86,6.86,0,0,0,1.9,4.17c1.48,1.53,3,.65,3.27-1.16.23-1.63-.26-4.39-2.06-5.26S157.45,139.79,157.58,141.64Z" style="fill: rgb(235, 179, 118); transform-origin: 160.187px 142.852px;" id="eluz8nk4jcbc" class="animable"></path><g id="elovmw6b0irr"><path d="M147,246c-.95,17.18,3.19,30.15,5.08,37.74,1.34-11.22,2.57-22.93,3.6-33.26C152.15,238.78,147.69,233.07,147,246Z" style="opacity: 0.3; transform-origin: 151.27px 261.181px;" class="animable"></path></g><polygon points="142.95 396.58 128.4 396.58 127.63 391.48 143.03 390.96 142.95 396.58" style="fill: rgb(89, 0, 245); transform-origin: 135.33px 393.77px;" id="el8z1m2hctvf7" class="animable"></polygon><g id="elmhnz4hus98i"><path d="M128.72,188.31l5.05,4s.53-1.41,1.17-3.43l-3-14.85Z" style="opacity: 0.3; transform-origin: 131.83px 183.17px;" class="animable"></path></g><path d="M139.7,124.17c2.61-2.89,11.48-7.3,19.09-3.84a12.4,12.4,0,0,1,7.26,11.32l-6.86,4.6Z" style="fill: rgb(38, 50, 56); transform-origin: 152.875px 127.656px;" id="el562kw1itod" class="animable"></path><path d="M132.7,131.76c3.77-3.09,8-14.29,0-10.39S122.27,140.31,132.7,131.76Z" style="fill: rgb(89, 0, 245); transform-origin: 131.504px 127.452px;" id="elkre94dhyot" class="animable"></path><path d="M133.55,124.58c1.63-4.76-9.12-14.23-16.37-5.23S128.86,138.28,133.55,124.58Z" style="fill: rgb(38, 50, 56); transform-origin: 124.63px 123.473px;" id="el6p97yxj257b" class="animable"></path><path d="M150.37,131.22c-6.25-2.66-9.36-12.74,1.37-12.45S162.16,136.25,150.37,131.22Z" style="fill: rgb(89, 0, 245); transform-origin: 152.091px 125.453px;" id="elmul7fbkpc8" class="animable"></path><path d="M148.35,126c-3.79-4.73.4-16.89,11.27-13S157.05,136.81,148.35,126Z" style="fill: rgb(38, 50, 56); transform-origin: 155.331px 120.711px;" id="elkne224rbr4k" class="animable"></path><path d="M167.56,219.12S177,283.62,180.32,309c3.45,26.35,13.53,85.43,13.53,85.43l-11.2,1.71s-17.7-56.35-22.63-82c-5.38-27.95-16-95-16-95Z" style="fill: rgb(89, 0, 245); transform-origin: 168.935px 307.63px;" id="el0jo1e03c8fn8" class="animable"></path><g id="elqti0jbab4gs"><path d="M167.56,219.12S177,283.62,180.32,309c3.45,26.35,13.53,85.43,13.53,85.43l-11.2,1.71s-17.7-56.35-22.63-82c-5.38-27.95-16-95-16-95Z" style="opacity: 0.6; transform-origin: 168.935px 307.63px;" class="animable"></path></g><path d="M171.56,168.57c4.16,1,9.29,12.44,9.29,12.44l-9.91,12.7s-10.24-14.49-8.87-18.91C163.49,170.19,166.51,167.34,171.56,168.57Z" style="fill: rgb(38, 50, 56); transform-origin: 171.397px 180.997px;" id="elhnf4rgcc8d6" class="animable"></path><path d="M158,168.05c1.37.2.1-2.93-.47-3.26-1.31-.78-18-2.35-17.81-.59A4.71,4.71,0,0,0,141,167C141.75,167.5,146,166.12,158,168.05Z" style="fill: rgb(89, 0, 245); transform-origin: 149.166px 165.728px;" id="elowke84ue4x8" class="animable"></path><g id="eluvcyq38ap1m"><path d="M158,168.05c1.37.2.1-2.93-.47-3.26-1.31-.78-18-2.35-17.81-.59A4.71,4.71,0,0,0,141,167C141.75,167.5,146,166.12,158,168.05Z" style="fill: rgb(255, 255, 255); opacity: 0.6; transform-origin: 149.166px 165.728px;" class="animable"></path></g><path d="M171.56,168.57s4,1.4-4,50.55h-34c.57-13.84.59-22.38-6-50.8a100.27,100.27,0,0,1,14.44-1.9,107.54,107.54,0,0,1,15.45,0C164,167,171.56,168.57,171.56,168.57Z" style="fill: rgb(38, 50, 56); transform-origin: 150.06px 192.631px;" id="elfguhd4bik3w" class="animable"></path><path d="M133,217.13l-1.53,3c-.12.24.16.48.55.48h35.68c.3,0,.56-.15.58-.35l.3-3c0-.21-.24-.39-.58-.39H133.58A.6.6,0,0,0,133,217.13Z" style="fill: rgb(89, 0, 245); transform-origin: 150.011px 218.737px;" id="elou66fw31cm" class="animable"></path><g id="elw6qsewz3wpe"><path d="M133,217.13l-1.53,3c-.12.24.16.48.55.48h35.68c.3,0,.56-.15.58-.35l.3-3c0-.21-.24-.39-.58-.39H133.58A.6.6,0,0,0,133,217.13Z" style="fill: rgb(255, 255, 255); opacity: 0.6; transform-origin: 150.011px 218.737px;" class="animable"></path></g><path d="M137.66,221h-.93c-.18,0-.32-.1-.31-.21l.44-4c0-.12.17-.21.35-.21h.93c.18,0,.32.09.31.21l-.44,4C138,220.88,137.84,221,137.66,221Z" style="fill: rgb(89, 0, 245); transform-origin: 137.435px 218.79px;" id="elg23uv5wu9yn" class="animable"></path><path d="M160,221h-.92c-.19,0-.33-.1-.31-.21l.43-4c0-.12.17-.21.36-.21h.92c.18,0,.32.09.31.21l-.43,4C160.36,220.88,160.2,221,160,221Z" style="fill: rgb(89, 0, 245); transform-origin: 159.779px 218.79px;" id="elp9g0l9jr09" class="animable"></path><g id="elo2l903vrv8m"><path d="M137.66,221h-.93c-.18,0-.32-.1-.31-.21l.44-4c0-.12.17-.21.35-.21h.93c.18,0,.32.09.31.21l-.44,4C138,220.88,137.84,221,137.66,221Z" style="opacity: 0.6; transform-origin: 137.435px 218.79px;" class="animable"></path></g><g id="elo6tq92ezopm"><path d="M160,221h-.92c-.19,0-.33-.1-.31-.21l.43-4c0-.12.17-.21.36-.21h.92c.18,0,.32.09.31.21l-.43,4C160.36,220.88,160.2,221,160,221Z" style="opacity: 0.6; transform-origin: 159.779px 218.79px;" class="animable"></path></g><polygon points="195.5 394.43 181.16 396.87 179.53 391.46 194.88 388.83 195.5 394.43" style="fill: rgb(89, 0, 245); transform-origin: 187.515px 392.85px;" id="eljtp8591et8" class="animable"></polygon><path d="M338.41,115.26a72.81,72.81,0,1,0-23.2,100.33A72.81,72.81,0,0,0,338.41,115.26Zm-110.49,69a57.45,57.45,0,1,1,79.16,18.31A57.45,57.45,0,0,1,227.92,184.25Z" style="fill: rgb(89, 0, 245); transform-origin: 276.653px 153.827px;" id="elt4achylj1w" class="animable"></path><path d="M338.41,115.26a72.81,72.81,0,1,0-23.2,100.33A72.81,72.81,0,0,0,338.41,115.26Zm-110.49,69a57.45,57.45,0,1,1,79.16,18.31A57.45,57.45,0,0,1,227.92,184.25Z" style="fill: rgb(89, 0, 245); transform-origin: 276.653px 153.827px;" id="elef9lgewo72g" class="animable"></path><g id="elhe6the1zu1p"><path d="M338.41,115.26a72.81,72.81,0,1,0-23.2,100.33A72.81,72.81,0,0,0,338.41,115.26Zm-110.49,69a57.45,57.45,0,1,1,79.16,18.31A57.45,57.45,0,0,1,227.92,184.25Z" style="fill: rgb(255, 255, 255); opacity: 0.5; transform-origin: 276.653px 153.827px;" class="animable"></path></g><g id="el3yrxi0g3kt8"><path d="M330.2,120.39a63.13,63.13,0,1,1-87-20.12A63.13,63.13,0,0,1,330.2,120.39Z" style="fill: rgb(250, 250, 250); opacity: 0.2; transform-origin: 276.644px 153.814px;" class="animable"></path></g><g id="ellbvk7qf9n5m"><path d="M339.17,144.89l-98,61.18a63.11,63.11,0,0,1-19.41-21l107-66.81A63.16,63.16,0,0,1,339.17,144.89Z" style="fill: rgb(230, 230, 230); opacity: 0.1; transform-origin: 280.465px 162.165px;" class="animable"></path></g></g><defs>     <filter id="active" height="200%">         <feMorphology in="SourceAlpha" result="DILATED" operator="dilate" radius="2"></feMorphology>                <feFlood flood-color="#32DFEC" flood-opacity="1" result="PINK"></feFlood>        <feComposite in="PINK" in2="DILATED" operator="in" result="OUTLINE"></feComposite>        <feMerge>            <feMergeNode in="OUTLINE"></feMergeNode>            <feMergeNode in="SourceGraphic"></feMergeNode>        </feMerge>    </filter>    <filter id="hover" height="200%">        <feMorphology in="SourceAlpha" result="DILATED" operator="dilate" radius="2"></feMorphology>                <feFlood flood-color="#ff0000" flood-opacity="0.5" result="PINK"></feFlood>        <feComposite in="PINK" in2="DILATED" operator="in" result="OUTLINE"></feComposite>        <feMerge>            <feMergeNode in="OUTLINE"></feMergeNode>            <feMergeNode in="SourceGraphic"></feMergeNode>        </feMerge>            <feColorMatrix type="matrix" values="0   0   0   0   0                0   1   0   0   0                0   0   0   0   0                0   0   0   1   0 "></feColorMatrix>    </filter></defs></svg>